;TYPE=PLATED
;Layer: PTH_Through
;EasyEDA Pro Client v2.2.45.4, 2026-03-24 20:17:43
;Gerber Generator version 0.3
M48
METRIC,LZ,0000.00000
;Hole size 1 = 0.30500 METRIC
T01C0.30500
;Hole size 2 = 0.90000 METRIC
T02C0.90000
;Hole size 3 = 3.00000 METRIC
T03C3.00000
%
G05
G90
T01
X-7.36591Y-2.37311
X8.38209Y-2.62711
X-69.72628Y-4.12207
X-41.87841Y-0.37485
X-35.52841Y1.40315
X-27.01941Y2.29215
X-4.03847Y-1.00379
X5.1756Y-0.39669
X66.64258Y-3.35884
X-64.69777Y-2.41777
X-50.98177Y-3.17977
X-56.18877Y-0.63977
X4.83219Y3.94235
X19.6536Y4.70515
X2.29219Y3.03836
X28.1626Y3.81615
X24.10517Y1.40315
X36.1636Y1.40315
X5.59419Y1.23014
X45.1806Y1.14915
X2.29219Y0.83415
X41.60119Y-1.64485
X46.42719Y-2.15285
X53.6896Y-0.62885
X5.34019Y0.43817
X62.1986Y-2.40685
X-47.67977Y1.13823
X-9.32577Y1.39223
X-39.29777Y2.91623
X-4.51987Y3.6
X-30.78877Y2.28123
X-11.23077Y3.04323
X-22.79869Y3.18115
X-5.07588Y5.45623
X-14.5094Y3.17023
X-6.87848Y4.70515
X-4.7304Y6.73715
X4.57819Y5.75032
X8.89619Y3.94315
X-27.75804Y2.02723
X-19.24904Y1.39223
X-11.24804Y1.39223
X-6.04104Y1.13823
X7.16696Y1.39223
X13.89796Y1.39223
X22.15296Y2.91623
X30.91596Y0.50323
X39.42496Y1.13823
X47.93396Y-2.16377
X56.44296Y-2.41777
X64.95196Y-5.71977
X-53.41204Y-2.41777
X-44.64904Y-0.63977
X-36.26704Y1.13823
X-14.7319Y7.14326
X1.14513Y3.07926
X-61.66704Y-5.71977
X-46.17304Y-0.63977
X-51.50704Y-2.16377
X1.75905Y6.65431
X4.55305Y6.65431
X0.74305Y1.57431
X7.18423Y-1.98169
X-20.49699Y5.2789
X-17.018Y3.378
X-9.46229Y-2.35029
X-16.383Y1.27
X-8.636Y0.508
T02
X-7.62Y-3.937
X-5.08Y-3.937
X-2.54Y-3.937
X0.0Y-3.937
X2.54Y-3.937
X5.08Y-3.937
X7.62Y-3.937
T03
X-66.802Y-9.906
X66.929Y-9.906
X66.929Y-15.748
X-66.929Y-16.002
M30