G04 Layer: TopPasteMaskLayer*
G04 EasyEDA Pro v2.2.45.4, 2026-03-24 20:17:41*
G04 Gerber Generator version 0.3*
G04 Scale: 100 percent, Rotated: No, Reflected: No*
G04 Dimensions in millimeters*
G04 Leading zeros omitted, absolute positions, 4 integers and 5 decimals*
G04 Generated by one-click*
%FSLAX45Y45*%
%MOMM*%
%ADD10O,2.0X2.8*%
%ADD11R,0.8X0.8*%
%ADD12O,1.324X0.308*%
%ADD13R,0.5X1.3*%
%ADD14R,1.8X2.2*%
%ADD15R,0.9054X0.8*%
%ADD16R,0.9X0.8*%
G75*


G04 PolygonModel Start*
G36*
G01X-6902989Y-296472D02*
G01X-6902989Y-376472D01*
G01X-6897988Y-381473D01*
G01X-6875191Y-381473D01*
G01X-6875191Y-344473D01*
G01X-6842192Y-344473D01*
G01X-6842192Y-381473D01*
G01X-6817988Y-381473D01*
G01X-6812989Y-376472D01*
G01X-6812989Y-296472D01*
G01X-6817988Y-291474D01*
G01X-6897988Y-291474D01*
G01X-6902989Y-296472D01*
G37*
G36*
G01X-6897988Y-451473D02*
G01X-6875191Y-451473D01*
G01X-6875191Y-489472D01*
G01X-6842192Y-489472D01*
G01X-6842192Y-451473D01*
G01X-6817988Y-451473D01*
G01X-6812989Y-456472D01*
G01X-6812989Y-535471D01*
G01X-6817988Y-540472D01*
G01X-6897988Y-540472D01*
G01X-6902989Y-535471D01*
G01X-6902989Y-456472D01*
G01X-6897988Y-451473D01*
G37*
G36*
G01X-6437742Y-362976D02*
G01X-6357742Y-362976D01*
G01X-6352741Y-357975D01*
G01X-6352741Y-335178D01*
G01X-6389741Y-335178D01*
G01X-6389741Y-302178D01*
G01X-6352741Y-302178D01*
G01X-6352741Y-277975D01*
G01X-6357742Y-272976D01*
G01X-6437742Y-272976D01*
G01X-6442741Y-277975D01*
G01X-6442741Y-357975D01*
G01X-6437742Y-362976D01*
G37*
G36*
G01X-6198738Y-272979D02*
G01X-6278738Y-272979D01*
G01X-6283740Y-277980D01*
G01X-6283740Y-300776D01*
G01X-6246739Y-300776D01*
G01X-6246739Y-333776D01*
G01X-6283740Y-333776D01*
G01X-6283740Y-357980D01*
G01X-6278738Y-362978D01*
G01X-6198738Y-362978D01*
G01X-6193740Y-357980D01*
G01X-6193740Y-277980D01*
G01X-6198738Y-272979D01*
G37*
G36*
G01X-6437742Y-540776D02*
G01X-6357742Y-540776D01*
G01X-6352741Y-535775D01*
G01X-6352741Y-512978D01*
G01X-6389741Y-512978D01*
G01X-6389741Y-479978D01*
G01X-6352741Y-479978D01*
G01X-6352741Y-455775D01*
G01X-6357742Y-450776D01*
G01X-6437742Y-450776D01*
G01X-6442741Y-455775D01*
G01X-6442741Y-535775D01*
G01X-6437742Y-540776D01*
G37*
G36*
G01X-6198738Y-450779D02*
G01X-6278738Y-450779D01*
G01X-6283740Y-455780D01*
G01X-6283740Y-478576D01*
G01X-6246739Y-478576D01*
G01X-6246739Y-511576D01*
G01X-6283740Y-511576D01*
G01X-6283740Y-535780D01*
G01X-6278738Y-540778D01*
G01X-6198738Y-540778D01*
G01X-6193740Y-535780D01*
G01X-6193740Y-455780D01*
G01X-6198738Y-450779D01*
G37*
G36*
G01X-5586842Y-185176D02*
G01X-5506842Y-185176D01*
G01X-5501841Y-180175D01*
G01X-5501841Y-157378D01*
G01X-5538841Y-157378D01*
G01X-5538841Y-124378D01*
G01X-5501841Y-124378D01*
G01X-5501841Y-100175D01*
G01X-5506842Y-95176D01*
G01X-5586842Y-95176D01*
G01X-5591841Y-100175D01*
G01X-5591841Y-180175D01*
G01X-5586842Y-185176D01*
G37*
G36*
G01X-5347838Y-95179D02*
G01X-5427838Y-95179D01*
G01X-5432840Y-100180D01*
G01X-5432840Y-122976D01*
G01X-5395839Y-122976D01*
G01X-5395839Y-155976D01*
G01X-5432840Y-155976D01*
G01X-5432840Y-180180D01*
G01X-5427838Y-185178D01*
G01X-5347838Y-185178D01*
G01X-5342840Y-180180D01*
G01X-5342840Y-100180D01*
G01X-5347838Y-95179D01*
G37*
G36*
G01X-5586842Y-362976D02*
G01X-5506842Y-362976D01*
G01X-5501841Y-357975D01*
G01X-5501841Y-335178D01*
G01X-5538841Y-335178D01*
G01X-5538841Y-302178D01*
G01X-5501841Y-302178D01*
G01X-5501841Y-277975D01*
G01X-5506842Y-272976D01*
G01X-5586842Y-272976D01*
G01X-5591841Y-277975D01*
G01X-5591841Y-357975D01*
G01X-5586842Y-362976D01*
G37*
G36*
G01X-5347838Y-272979D02*
G01X-5427838Y-272979D01*
G01X-5432840Y-277980D01*
G01X-5432840Y-300776D01*
G01X-5395839Y-300776D01*
G01X-5395839Y-333776D01*
G01X-5432840Y-333776D01*
G01X-5432840Y-357980D01*
G01X-5427838Y-362978D01*
G01X-5347838Y-362978D01*
G01X-5342840Y-357980D01*
G01X-5342840Y-277980D01*
G01X-5347838Y-272979D01*
G37*
G36*
G01X-4735942Y-185176D02*
G01X-4655942Y-185176D01*
G01X-4650941Y-180175D01*
G01X-4650941Y-157378D01*
G01X-4687941Y-157378D01*
G01X-4687941Y-124378D01*
G01X-4650941Y-124378D01*
G01X-4650941Y-100175D01*
G01X-4655942Y-95176D01*
G01X-4735942Y-95176D01*
G01X-4740941Y-100175D01*
G01X-4740941Y-180175D01*
G01X-4735942Y-185176D01*
G37*
G36*
G01X-4496938Y-95179D02*
G01X-4576938Y-95179D01*
G01X-4581940Y-100180D01*
G01X-4581940Y-122976D01*
G01X-4544939Y-122976D01*
G01X-4544939Y-155976D01*
G01X-4581940Y-155976D01*
G01X-4581940Y-180180D01*
G01X-4576938Y-185178D01*
G01X-4496938Y-185178D01*
G01X-4491940Y-180180D01*
G01X-4491940Y-100180D01*
G01X-4496938Y-95179D01*
G37*
G36*
G01X-4735942Y-7376D02*
G01X-4655942Y-7376D01*
G01X-4650941Y-2375D01*
G01X-4650941Y20422D01*
G01X-4687941Y20422D01*
G01X-4687941Y53422D01*
G01X-4650941Y53422D01*
G01X-4650941Y77625D01*
G01X-4655942Y82624D01*
G01X-4735942Y82624D01*
G01X-4740941Y77625D01*
G01X-4740941Y-2375D01*
G01X-4735942Y-7376D01*
G37*
G36*
G01X-4496938Y82621D02*
G01X-4576938Y82621D01*
G01X-4581940Y77620D01*
G01X-4581940Y54824D01*
G01X-4544939Y54824D01*
G01X-4544939Y21824D01*
G01X-4581940Y21824D01*
G01X-4581940Y-2380D01*
G01X-4576938Y-7378D01*
G01X-4496938Y-7378D01*
G01X-4491940Y-2380D01*
G01X-4491940Y77620D01*
G01X-4496938Y82621D01*
G37*
G36*
G01X-3897742Y-7376D02*
G01X-3817742Y-7376D01*
G01X-3812741Y-2375D01*
G01X-3812741Y20422D01*
G01X-3849741Y20422D01*
G01X-3849741Y53422D01*
G01X-3812741Y53422D01*
G01X-3812741Y77625D01*
G01X-3817742Y82624D01*
G01X-3897742Y82624D01*
G01X-3902741Y77625D01*
G01X-3902741Y-2375D01*
G01X-3897742Y-7376D01*
G37*
G36*
G01X-3658738Y82621D02*
G01X-3738738Y82621D01*
G01X-3743740Y77620D01*
G01X-3743740Y54824D01*
G01X-3706739Y54824D01*
G01X-3706739Y21824D01*
G01X-3743740Y21824D01*
G01X-3743740Y-2380D01*
G01X-3738738Y-7378D01*
G01X-3658738Y-7378D01*
G01X-3653740Y-2380D01*
G01X-3653740Y77620D01*
G01X-3658738Y82621D01*
G37*
G36*
G01X-3897742Y170424D02*
G01X-3817742Y170424D01*
G01X-3812741Y175425D01*
G01X-3812741Y198222D01*
G01X-3849741Y198222D01*
G01X-3849741Y231222D01*
G01X-3812741Y231222D01*
G01X-3812741Y255425D01*
G01X-3817742Y260424D01*
G01X-3897742Y260424D01*
G01X-3902741Y255425D01*
G01X-3902741Y175425D01*
G01X-3897742Y170424D01*
G37*
G36*
G01X-3658738Y260421D02*
G01X-3738738Y260421D01*
G01X-3743740Y255420D01*
G01X-3743740Y232624D01*
G01X-3706739Y232624D01*
G01X-3706739Y199624D01*
G01X-3743740Y199624D01*
G01X-3743740Y175420D01*
G01X-3738738Y170422D01*
G01X-3658738Y170422D01*
G01X-3653740Y175420D01*
G01X-3653740Y255420D01*
G01X-3658738Y260421D01*
G37*
G36*
G01X-3046842Y259324D02*
G01X-2966842Y259324D01*
G01X-2961841Y264325D01*
G01X-2961841Y287122D01*
G01X-2998841Y287122D01*
G01X-2998841Y320122D01*
G01X-2961841Y320122D01*
G01X-2961841Y344325D01*
G01X-2966842Y349324D01*
G01X-3046842Y349324D01*
G01X-3051841Y344325D01*
G01X-3051841Y264325D01*
G01X-3046842Y259324D01*
G37*
G36*
G01X-2807838Y349321D02*
G01X-2887838Y349321D01*
G01X-2892840Y344320D01*
G01X-2892840Y321524D01*
G01X-2855839Y321524D01*
G01X-2855839Y288524D01*
G01X-2892840Y288524D01*
G01X-2892840Y264320D01*
G01X-2887838Y259322D01*
G01X-2807838Y259322D01*
G01X-2802840Y264320D01*
G01X-2802840Y344320D01*
G01X-2807838Y349321D01*
G37*
G36*
G01X-3046842Y81524D02*
G01X-2966842Y81524D01*
G01X-2961841Y86525D01*
G01X-2961841Y109322D01*
G01X-2998841Y109322D01*
G01X-2998841Y142322D01*
G01X-2961841Y142322D01*
G01X-2961841Y166525D01*
G01X-2966842Y171524D01*
G01X-3046842Y171524D01*
G01X-3051841Y166525D01*
G01X-3051841Y86525D01*
G01X-3046842Y81524D01*
G37*
G36*
G01X-2807838Y171521D02*
G01X-2887838Y171521D01*
G01X-2892840Y166520D01*
G01X-2892840Y143724D01*
G01X-2855839Y143724D01*
G01X-2855839Y110724D01*
G01X-2892840Y110724D01*
G01X-2892840Y86520D01*
G01X-2887838Y81522D01*
G01X-2807838Y81522D01*
G01X-2802840Y86520D01*
G01X-2802840Y166520D01*
G01X-2807838Y171521D01*
G37*
G36*
G01X-2195942Y348224D02*
G01X-2115942Y348224D01*
G01X-2110941Y353225D01*
G01X-2110941Y376022D01*
G01X-2147941Y376022D01*
G01X-2147941Y409022D01*
G01X-2110941Y409022D01*
G01X-2110941Y433225D01*
G01X-2115942Y438224D01*
G01X-2195942Y438224D01*
G01X-2200941Y433225D01*
G01X-2200941Y353225D01*
G01X-2195942Y348224D01*
G37*
G36*
G01X-1956938Y438221D02*
G01X-2036938Y438221D01*
G01X-2041940Y433220D01*
G01X-2041940Y410424D01*
G01X-2004939Y410424D01*
G01X-2004939Y377424D01*
G01X-2041940Y377424D01*
G01X-2041940Y353220D01*
G01X-2036938Y348222D01*
G01X-1956938Y348222D01*
G01X-1951940Y353220D01*
G01X-1951940Y433220D01*
G01X-1956938Y438221D01*
G37*
G36*
G01X-2195942Y170424D02*
G01X-2115942Y170424D01*
G01X-2110941Y175425D01*
G01X-2110941Y198222D01*
G01X-2147941Y198222D01*
G01X-2147941Y231222D01*
G01X-2110941Y231222D01*
G01X-2110941Y255425D01*
G01X-2115942Y260424D01*
G01X-2195942Y260424D01*
G01X-2200941Y255425D01*
G01X-2200941Y175425D01*
G01X-2195942Y170424D01*
G37*
G36*
G01X-1956938Y260421D02*
G01X-2036938Y260421D01*
G01X-2041940Y255420D01*
G01X-2041940Y232624D01*
G01X-2004939Y232624D01*
G01X-2004939Y199624D01*
G01X-2041940Y199624D01*
G01X-2041940Y175420D01*
G01X-2036938Y170422D01*
G01X-1956938Y170422D01*
G01X-1951940Y175420D01*
G01X-1951940Y255420D01*
G01X-1956938Y260421D01*
G37*
G36*
G01X-1370442Y348224D02*
G01X-1290442Y348224D01*
G01X-1285441Y353225D01*
G01X-1285441Y376022D01*
G01X-1322441Y376022D01*
G01X-1322441Y409022D01*
G01X-1285441Y409022D01*
G01X-1285441Y433225D01*
G01X-1290442Y438224D01*
G01X-1370442Y438224D01*
G01X-1375441Y433225D01*
G01X-1375441Y353225D01*
G01X-1370442Y348224D01*
G37*
G36*
G01X-1131438Y438221D02*
G01X-1211438Y438221D01*
G01X-1216440Y433220D01*
G01X-1216440Y410424D01*
G01X-1179439Y410424D01*
G01X-1179439Y377424D01*
G01X-1216440Y377424D01*
G01X-1216440Y353220D01*
G01X-1211438Y348222D01*
G01X-1131438Y348222D01*
G01X-1126440Y353220D01*
G01X-1126440Y433220D01*
G01X-1131438Y438221D01*
G37*
G36*
G01X-1370442Y170424D02*
G01X-1290442Y170424D01*
G01X-1285441Y175425D01*
G01X-1285441Y198222D01*
G01X-1322441Y198222D01*
G01X-1322441Y231222D01*
G01X-1285441Y231222D01*
G01X-1285441Y255425D01*
G01X-1290442Y260424D01*
G01X-1370442Y260424D01*
G01X-1375441Y255425D01*
G01X-1375441Y175425D01*
G01X-1370442Y170424D01*
G37*
G36*
G01X-1131438Y260421D02*
G01X-1211438Y260421D01*
G01X-1216440Y255420D01*
G01X-1216440Y232624D01*
G01X-1179439Y232624D01*
G01X-1179439Y199624D01*
G01X-1216440Y199624D01*
G01X-1216440Y175420D01*
G01X-1211438Y170422D01*
G01X-1131438Y170422D01*
G01X-1126440Y175420D01*
G01X-1126440Y255420D01*
G01X-1131438Y260421D01*
G37*
G36*
G01X-798942Y360924D02*
G01X-718942Y360924D01*
G01X-713941Y365925D01*
G01X-713941Y388722D01*
G01X-750941Y388722D01*
G01X-750941Y421722D01*
G01X-713941Y421722D01*
G01X-713941Y445925D01*
G01X-718942Y450924D01*
G01X-798942Y450924D01*
G01X-803941Y445925D01*
G01X-803941Y365925D01*
G01X-798942Y360924D01*
G37*
G36*
G01X-559938Y450921D02*
G01X-639938Y450921D01*
G01X-644940Y445920D01*
G01X-644940Y423124D01*
G01X-607939Y423124D01*
G01X-607939Y390124D01*
G01X-644940Y390124D01*
G01X-644940Y365920D01*
G01X-639938Y360922D01*
G01X-559938Y360922D01*
G01X-554940Y365920D01*
G01X-554940Y445920D01*
G01X-559938Y450921D01*
G37*
G36*
G01X-798942Y170424D02*
G01X-718942Y170424D01*
G01X-713941Y175425D01*
G01X-713941Y198222D01*
G01X-750941Y198222D01*
G01X-750941Y231222D01*
G01X-713941Y231222D01*
G01X-713941Y255425D01*
G01X-718942Y260424D01*
G01X-798942Y260424D01*
G01X-803941Y255425D01*
G01X-803941Y175425D01*
G01X-798942Y170424D01*
G37*
G36*
G01X-559938Y260421D02*
G01X-639938Y260421D01*
G01X-644940Y255420D01*
G01X-644940Y232624D01*
G01X-607939Y232624D01*
G01X-607939Y199624D01*
G01X-644940Y199624D01*
G01X-644940Y175420D01*
G01X-639938Y170422D01*
G01X-559938Y170422D01*
G01X-554940Y175420D01*
G01X-554940Y255420D01*
G01X-559938Y260421D01*
G37*
G36*
G01X572658Y170424D02*
G01X652658Y170424D01*
G01X657659Y175425D01*
G01X657659Y198222D01*
G01X620659Y198222D01*
G01X620659Y231222D01*
G01X657659Y231222D01*
G01X657659Y255425D01*
G01X652658Y260424D01*
G01X572658Y260424D01*
G01X567659Y255425D01*
G01X567659Y175425D01*
G01X572658Y170424D01*
G37*
G36*
G01X811662Y260421D02*
G01X731662Y260421D01*
G01X726660Y255420D01*
G01X726660Y232624D01*
G01X763661Y232624D01*
G01X763661Y199624D01*
G01X726660Y199624D01*
G01X726660Y175420D01*
G01X731662Y170422D01*
G01X811662Y170422D01*
G01X816660Y175420D01*
G01X816660Y255420D01*
G01X811662Y260421D01*
G37*
G36*
G01X572658Y348224D02*
G01X652658Y348224D01*
G01X657659Y353225D01*
G01X657659Y376022D01*
G01X620659Y376022D01*
G01X620659Y409022D01*
G01X657659Y409022D01*
G01X657659Y433225D01*
G01X652658Y438224D01*
G01X572658Y438224D01*
G01X567659Y433225D01*
G01X567659Y353225D01*
G01X572658Y348224D01*
G37*
G36*
G01X811662Y438221D02*
G01X731662Y438221D01*
G01X726660Y433220D01*
G01X726660Y410424D01*
G01X763661Y410424D01*
G01X763661Y377424D01*
G01X726660Y377424D01*
G01X726660Y353220D01*
G01X731662Y348222D01*
G01X811662Y348222D01*
G01X816660Y353220D01*
G01X816660Y433220D01*
G01X811662Y438221D01*
G37*
G36*
G01X1144158Y170424D02*
G01X1224158Y170424D01*
G01X1229159Y175425D01*
G01X1229159Y198222D01*
G01X1192159Y198222D01*
G01X1192159Y231222D01*
G01X1229159Y231222D01*
G01X1229159Y255425D01*
G01X1224158Y260424D01*
G01X1144158Y260424D01*
G01X1139159Y255425D01*
G01X1139159Y175425D01*
G01X1144158Y170424D01*
G37*
G36*
G01X1383162Y260421D02*
G01X1303162Y260421D01*
G01X1298160Y255420D01*
G01X1298160Y232624D01*
G01X1335161Y232624D01*
G01X1335161Y199624D01*
G01X1298160Y199624D01*
G01X1298160Y175420D01*
G01X1303162Y170422D01*
G01X1383162Y170422D01*
G01X1388160Y175420D01*
G01X1388160Y255420D01*
G01X1383162Y260421D01*
G37*
G36*
G01X1144158Y348224D02*
G01X1224158Y348224D01*
G01X1229159Y353225D01*
G01X1229159Y376022D01*
G01X1192159Y376022D01*
G01X1192159Y409022D01*
G01X1229159Y409022D01*
G01X1229159Y433225D01*
G01X1224158Y438224D01*
G01X1144158Y438224D01*
G01X1139159Y433225D01*
G01X1139159Y353225D01*
G01X1144158Y348224D01*
G37*
G36*
G01X1383162Y438221D02*
G01X1303162Y438221D01*
G01X1298160Y433220D01*
G01X1298160Y410424D01*
G01X1335161Y410424D01*
G01X1335161Y377424D01*
G01X1298160Y377424D01*
G01X1298160Y353220D01*
G01X1303162Y348222D01*
G01X1383162Y348222D01*
G01X1388160Y353220D01*
G01X1388160Y433220D01*
G01X1383162Y438221D01*
G37*
G36*
G01X1969658Y348224D02*
G01X2049658Y348224D01*
G01X2054659Y353225D01*
G01X2054659Y376022D01*
G01X2017659Y376022D01*
G01X2017659Y409022D01*
G01X2054659Y409022D01*
G01X2054659Y433225D01*
G01X2049658Y438224D01*
G01X1969658Y438224D01*
G01X1964659Y433225D01*
G01X1964659Y353225D01*
G01X1969658Y348224D01*
G37*
G36*
G01X2208662Y438221D02*
G01X2128662Y438221D01*
G01X2123660Y433220D01*
G01X2123660Y410424D01*
G01X2160661Y410424D01*
G01X2160661Y377424D01*
G01X2123660Y377424D01*
G01X2123660Y353220D01*
G01X2128662Y348222D01*
G01X2208662Y348222D01*
G01X2213660Y353220D01*
G01X2213660Y433220D01*
G01X2208662Y438221D01*
G37*
G36*
G01X1969658Y170424D02*
G01X2049658Y170424D01*
G01X2054659Y175425D01*
G01X2054659Y198222D01*
G01X2017659Y198222D01*
G01X2017659Y231222D01*
G01X2054659Y231222D01*
G01X2054659Y255425D01*
G01X2049658Y260424D01*
G01X1969658Y260424D01*
G01X1964659Y255425D01*
G01X1964659Y175425D01*
G01X1969658Y170424D01*
G37*
G36*
G01X2208662Y260421D02*
G01X2128662Y260421D01*
G01X2123660Y255420D01*
G01X2123660Y232624D01*
G01X2160661Y232624D01*
G01X2160661Y199624D01*
G01X2123660Y199624D01*
G01X2123660Y175420D01*
G01X2128662Y170422D01*
G01X2208662Y170422D01*
G01X2213660Y175420D01*
G01X2213660Y255420D01*
G01X2208662Y260421D01*
G37*
G36*
G01X2820558Y81524D02*
G01X2900558Y81524D01*
G01X2905559Y86525D01*
G01X2905559Y109322D01*
G01X2868559Y109322D01*
G01X2868559Y142322D01*
G01X2905559Y142322D01*
G01X2905559Y166525D01*
G01X2900558Y171524D01*
G01X2820558Y171524D01*
G01X2815559Y166525D01*
G01X2815559Y86525D01*
G01X2820558Y81524D01*
G37*
G36*
G01X3059562Y171521D02*
G01X2979562Y171521D01*
G01X2974560Y166520D01*
G01X2974560Y143724D01*
G01X3011561Y143724D01*
G01X3011561Y110724D01*
G01X2974560Y110724D01*
G01X2974560Y86520D01*
G01X2979562Y81522D01*
G01X3059562Y81522D01*
G01X3064560Y86520D01*
G01X3064560Y166520D01*
G01X3059562Y171521D01*
G37*
G36*
G01X2820558Y259324D02*
G01X2900558Y259324D01*
G01X2905559Y264325D01*
G01X2905559Y287122D01*
G01X2868559Y287122D01*
G01X2868559Y320122D01*
G01X2905559Y320122D01*
G01X2905559Y344325D01*
G01X2900558Y349324D01*
G01X2820558Y349324D01*
G01X2815559Y344325D01*
G01X2815559Y264325D01*
G01X2820558Y259324D01*
G37*
G36*
G01X3059562Y349321D02*
G01X2979562Y349321D01*
G01X2974560Y344320D01*
G01X2974560Y321524D01*
G01X3011561Y321524D01*
G01X3011561Y288524D01*
G01X2974560Y288524D01*
G01X2974560Y264320D01*
G01X2979562Y259322D01*
G01X3059562Y259322D01*
G01X3064560Y264320D01*
G01X3064560Y344320D01*
G01X3059562Y349321D01*
G37*
G36*
G01X3671458Y170424D02*
G01X3751458Y170424D01*
G01X3756459Y175425D01*
G01X3756459Y198222D01*
G01X3719459Y198222D01*
G01X3719459Y231222D01*
G01X3756459Y231222D01*
G01X3756459Y255425D01*
G01X3751458Y260424D01*
G01X3671458Y260424D01*
G01X3666459Y255425D01*
G01X3666459Y175425D01*
G01X3671458Y170424D01*
G37*
G36*
G01X3910462Y260421D02*
G01X3830462Y260421D01*
G01X3825460Y255420D01*
G01X3825460Y232624D01*
G01X3862461Y232624D01*
G01X3862461Y199624D01*
G01X3825460Y199624D01*
G01X3825460Y175420D01*
G01X3830462Y170422D01*
G01X3910462Y170422D01*
G01X3915460Y175420D01*
G01X3915460Y255420D01*
G01X3910462Y260421D01*
G37*
G36*
G01X3671458Y-7376D02*
G01X3751458Y-7376D01*
G01X3756459Y-2375D01*
G01X3756459Y20422D01*
G01X3719459Y20422D01*
G01X3719459Y53422D01*
G01X3756459Y53422D01*
G01X3756459Y77625D01*
G01X3751458Y82624D01*
G01X3671458Y82624D01*
G01X3666459Y77625D01*
G01X3666459Y-2375D01*
G01X3671458Y-7376D01*
G37*
G36*
G01X3910462Y82621D02*
G01X3830462Y82621D01*
G01X3825460Y77620D01*
G01X3825460Y54824D01*
G01X3862461Y54824D01*
G01X3862461Y21824D01*
G01X3825460Y21824D01*
G01X3825460Y-2380D01*
G01X3830462Y-7378D01*
G01X3910462Y-7378D01*
G01X3915460Y-2380D01*
G01X3915460Y77620D01*
G01X3910462Y82621D01*
G37*
G36*
G01X4522358Y-185176D02*
G01X4602358Y-185176D01*
G01X4607359Y-180175D01*
G01X4607359Y-157378D01*
G01X4570359Y-157378D01*
G01X4570359Y-124378D01*
G01X4607359Y-124378D01*
G01X4607359Y-100175D01*
G01X4602358Y-95176D01*
G01X4522358Y-95176D01*
G01X4517359Y-100175D01*
G01X4517359Y-180175D01*
G01X4522358Y-185176D01*
G37*
G36*
G01X4761362Y-95179D02*
G01X4681362Y-95179D01*
G01X4676360Y-100180D01*
G01X4676360Y-122976D01*
G01X4713361Y-122976D01*
G01X4713361Y-155976D01*
G01X4676360Y-155976D01*
G01X4676360Y-180180D01*
G01X4681362Y-185178D01*
G01X4761362Y-185178D01*
G01X4766360Y-180180D01*
G01X4766360Y-100180D01*
G01X4761362Y-95179D01*
G37*
G36*
G01X4522358Y-7376D02*
G01X4602358Y-7376D01*
G01X4607359Y-2375D01*
G01X4607359Y20422D01*
G01X4570359Y20422D01*
G01X4570359Y53422D01*
G01X4607359Y53422D01*
G01X4607359Y77625D01*
G01X4602358Y82624D01*
G01X4522358Y82624D01*
G01X4517359Y77625D01*
G01X4517359Y-2375D01*
G01X4522358Y-7376D01*
G37*
G36*
G01X4761362Y82621D02*
G01X4681362Y82621D01*
G01X4676360Y77620D01*
G01X4676360Y54824D01*
G01X4713361Y54824D01*
G01X4713361Y21824D01*
G01X4676360Y21824D01*
G01X4676360Y-2380D01*
G01X4681362Y-7378D01*
G01X4761362Y-7378D01*
G01X4766360Y-2380D01*
G01X4766360Y77620D01*
G01X4761362Y82621D01*
G37*
G36*
G01X5373258Y-185176D02*
G01X5453258Y-185176D01*
G01X5458259Y-180175D01*
G01X5458259Y-157378D01*
G01X5421259Y-157378D01*
G01X5421259Y-124378D01*
G01X5458259Y-124378D01*
G01X5458259Y-100175D01*
G01X5453258Y-95176D01*
G01X5373258Y-95176D01*
G01X5368259Y-100175D01*
G01X5368259Y-180175D01*
G01X5373258Y-185176D01*
G37*
G36*
G01X5612262Y-95179D02*
G01X5532262Y-95179D01*
G01X5527260Y-100180D01*
G01X5527260Y-122976D01*
G01X5564261Y-122976D01*
G01X5564261Y-155976D01*
G01X5527260Y-155976D01*
G01X5527260Y-180180D01*
G01X5532262Y-185178D01*
G01X5612262Y-185178D01*
G01X5617260Y-180180D01*
G01X5617260Y-100180D01*
G01X5612262Y-95179D01*
G37*
G36*
G01X5373258Y-362976D02*
G01X5453258Y-362976D01*
G01X5458259Y-357975D01*
G01X5458259Y-335178D01*
G01X5421259Y-335178D01*
G01X5421259Y-302178D01*
G01X5458259Y-302178D01*
G01X5458259Y-277975D01*
G01X5453258Y-272976D01*
G01X5373258Y-272976D01*
G01X5368259Y-277975D01*
G01X5368259Y-357975D01*
G01X5373258Y-362976D01*
G37*
G36*
G01X5612262Y-272979D02*
G01X5532262Y-272979D01*
G01X5527260Y-277980D01*
G01X5527260Y-300776D01*
G01X5564261Y-300776D01*
G01X5564261Y-333776D01*
G01X5527260Y-333776D01*
G01X5527260Y-357980D01*
G01X5532262Y-362978D01*
G01X5612262Y-362978D01*
G01X5617260Y-357980D01*
G01X5617260Y-277980D01*
G01X5612262Y-272979D01*
G37*
G36*
G01X6224158Y-362976D02*
G01X6304158Y-362976D01*
G01X6309159Y-357975D01*
G01X6309159Y-335178D01*
G01X6272159Y-335178D01*
G01X6272159Y-302178D01*
G01X6309159Y-302178D01*
G01X6309159Y-277975D01*
G01X6304158Y-272976D01*
G01X6224158Y-272976D01*
G01X6219159Y-277975D01*
G01X6219159Y-357975D01*
G01X6224158Y-362976D01*
G37*
G36*
G01X6463162Y-272979D02*
G01X6383162Y-272979D01*
G01X6378160Y-277980D01*
G01X6378160Y-300776D01*
G01X6415161Y-300776D01*
G01X6415161Y-333776D01*
G01X6378160Y-333776D01*
G01X6378160Y-357980D01*
G01X6383162Y-362978D01*
G01X6463162Y-362978D01*
G01X6468160Y-357980D01*
G01X6468160Y-277980D01*
G01X6463162Y-272979D01*
G37*
G36*
G01X6224158Y-540776D02*
G01X6304158Y-540776D01*
G01X6309159Y-535775D01*
G01X6309159Y-512978D01*
G01X6272159Y-512978D01*
G01X6272159Y-479978D01*
G01X6309159Y-479978D01*
G01X6309159Y-455775D01*
G01X6304158Y-450776D01*
G01X6224158Y-450776D01*
G01X6219159Y-455775D01*
G01X6219159Y-535775D01*
G01X6224158Y-540776D01*
G37*
G36*
G01X6463162Y-450779D02*
G01X6383162Y-450779D01*
G01X6378160Y-455780D01*
G01X6378160Y-478576D01*
G01X6415161Y-478576D01*
G01X6415161Y-511576D01*
G01X6378160Y-511576D01*
G01X6378160Y-535780D01*
G01X6383162Y-540778D01*
G01X6463162Y-540778D01*
G01X6468160Y-535780D01*
G01X6468160Y-455780D01*
G01X6463162Y-450779D01*
G37*
G36*
G01X6812929Y-296349D02*
G01X6812929Y-376349D01*
G01X6817930Y-381350D01*
G01X6840727Y-381350D01*
G01X6840727Y-344350D01*
G01X6873726Y-344350D01*
G01X6873726Y-381350D01*
G01X6897930Y-381350D01*
G01X6902929Y-376349D01*
G01X6902929Y-296349D01*
G01X6897930Y-291350D01*
G01X6817930Y-291350D01*
G01X6812929Y-296349D01*
G37*
G36*
G01X6817930Y-451350D02*
G01X6840727Y-451350D01*
G01X6840727Y-489349D01*
G01X6873726Y-489349D01*
G01X6873726Y-451350D01*
G01X6897930Y-451350D01*
G01X6902929Y-456349D01*
G01X6902929Y-535348D01*
G01X6897930Y-540349D01*
G01X6817930Y-540349D01*
G01X6812929Y-535348D01*
G01X6812929Y-456349D01*
G01X6817930Y-451350D01*
G37*

G04 Pad Start*
G54D10*
G01X-1904990Y688926D03*
G01X-1625590Y688926D03*
G01X-1320790Y688926D03*
G54D11*
G01X-7048828Y-336007D03*
G01X-7048142Y-495926D03*
G54D12*
G01X-356200Y665431D03*
G01X-356200Y600432D03*
G01X-356200Y535434D03*
G01X-356200Y470435D03*
G01X-356200Y405436D03*
G01X-356200Y340412D03*
G01X-356200Y275414D03*
G01X-356200Y210415D03*
G01X-356200Y145417D03*
G01X-356200Y80418D03*
G01X-356200Y15419D03*
G01X-356200Y-49579D03*
G01X356219Y665431D03*
G01X356219Y600432D03*
G01X356219Y535434D03*
G01X356219Y470435D03*
G01X356219Y405436D03*
G01X356219Y340412D03*
G01X356219Y275414D03*
G01X356219Y210415D03*
G01X356219Y145417D03*
G01X356219Y80418D03*
G01X356219Y15419D03*
G01X356219Y-49579D03*
G54D13*
G01X-311912Y-650113D03*
G01X-211912Y-650113D03*
G01X-111912Y-650113D03*
G01X-11913Y-650113D03*
G01X88087Y-650113D03*
G01X188087Y-650113D03*
G01X288087Y-650113D03*
G01X388087Y-650113D03*
G54D14*
G01X-561899Y-950087D03*
G01X638099Y-950087D03*
G54D16*
G01X628660Y-133980D03*
G01X628660Y6025D03*
G54D11*
G01X7048090Y-335884D03*
G01X7048776Y-495803D03*
G04 Pad End*

M02*

