G04 Layer: BottomSolderMaskLayer*
G04 EasyEDA Pro v2.2.45.4, 2026-03-24 20:17:41*
G04 Gerber Generator version 0.3*
G04 Scale: 100 percent, Rotated: No, Reflected: No*
G04 Dimensions in millimeters*
G04 Leading zeros omitted, absolute positions, 4 integers and 5 decimals*
G04 Generated by one-click*
%FSLAX45Y45*%
%MOMM*%
%AMRoundRect*1,1,$1,$2,$3*1,1,$1,$4,$5*1,1,$1,0-$2,0-$3*1,1,$1,0-$4,0-$5*20,1,$1,$2,$3,$4,$5,0*20,1,$1,$4,$5,0-$2,0-$3,0*20,1,$1,0-$2,0-$3,0-$4,0-$5,0*20,1,$1,0-$4,0-$5,$2,$3,0*4,1,4,$2,$3,$4,$5,0-$2,0-$3,0-$4,0-$5,$2,$3,0*%
%ADD10C,4.1016*%
%ADD11RoundRect,0.09131X-0.83514X-0.40514X-0.83514X0.40514*%
%ADD12C,2.0*%
%ADD13C,0.3704*%
G75*


G04 Pad Start*
G54D10*
G01X-6680200Y-990600D03*
G01X6692900Y-990600D03*
G54D11*
G01X-6118241Y-316885D03*
G01X-6518240Y-316885D03*
G01X-6518240Y-496869D03*
G01X-6118241Y-496869D03*
G01X-5267341Y-139085D03*
G01X-5667340Y-139085D03*
G01X-5667340Y-319069D03*
G01X-5267341Y-319069D03*
G01X-4416441Y38715D03*
G01X-4816440Y38715D03*
G01X-4816440Y-141269D03*
G01X-4416441Y-141269D03*
G01X-3578241Y216515D03*
G01X-3978240Y216515D03*
G01X-3978240Y36531D03*
G01X-3578241Y36531D03*
G01X-2727341Y305415D03*
G01X-3127340Y305415D03*
G01X-3127340Y125431D03*
G01X-2727341Y125431D03*
G01X-1876441Y394315D03*
G01X-2276440Y394315D03*
G01X-2276440Y214331D03*
G01X-1876441Y214331D03*
G01X-1050941Y394315D03*
G01X-1450940Y394315D03*
G01X-1450940Y214331D03*
G01X-1050941Y214331D03*
G01X-200041Y394315D03*
G01X-600040Y394315D03*
G01X-600040Y214331D03*
G01X-200041Y214331D03*
G01X612759Y394315D03*
G01X212760Y394315D03*
G01X212760Y214331D03*
G01X612759Y214331D03*
G01X1463659Y394315D03*
G01X1063660Y394315D03*
G01X1063660Y214331D03*
G01X1463659Y214331D03*
G01X2289159Y394315D03*
G01X1889160Y394315D03*
G01X1889160Y214331D03*
G01X2289159Y214331D03*
G01X3140059Y305415D03*
G01X2740060Y305415D03*
G01X2740060Y125431D03*
G01X3140059Y125431D03*
G01X3990959Y216515D03*
G01X3590960Y216515D03*
G01X3590960Y36531D03*
G01X3990959Y36531D03*
G01X4841859Y38715D03*
G01X4441860Y38715D03*
G01X4441860Y-141269D03*
G01X4841859Y-141269D03*
G01X5692759Y-139085D03*
G01X5292760Y-139085D03*
G01X5292760Y-319069D03*
G01X5692759Y-319069D03*
G01X6543659Y-316885D03*
G01X6143660Y-316885D03*
G01X6143660Y-496869D03*
G01X6543659Y-496869D03*
G54D10*
G01X6692900Y-1574800D03*
G01X-6692900Y-1600200D03*
G04 Pad End*

G04 Via Start*
G54D12*
G01X-762000Y-393700D03*
G01X-508000Y-393700D03*
G01X-254000Y-393700D03*
G01X0Y-393700D03*
G01X254000Y-393700D03*
G01X508000Y-393700D03*
G01X762000Y-393700D03*
G04 Via End*

M02*

