G04 Layer: DrillDrawingLayer*
G04 EasyEDA Pro v2.2.45.4, 2026-03-24 20:17:41*
G04 Gerber Generator version 0.3*
G04 Scale: 100 percent, Rotated: No, Reflected: No*
G04 Dimensions in millimeters*
G04 Leading zeros omitted, absolute positions, 4 integers and 5 decimals*
G04 Generated by one-click*
%FSLAX45Y45*%
%MOMM*%
%AMIconRect*4,1,4,0.28,-0.28,-0.28,-0.28,-0.28,0.28,0.28,0.28,0.28,-0.28,0*4,0,4,0.233333,-0.233333,0.233333,0.233333,-0.233333,0.233333,-0.233333,-0.233333,0.233333,-0.233333,0*%
%AMIconTriangle*4,1,3,-0.339593,0.240473,0.339593,0.240473,0,-0.37884,-0.339593,0.240473,0*4,0,3,-0.265673,0.19404,0,-0.27342,0.266233,0.19404,-0.265673,0.19404,0*%
%ADD10IconRect*%
%ADD11C,0.616X0.522667*%
%ADD12IconTriangle*%
G75*


G04 Drill Drawing Start*
G54D10*
G01X-6692900Y-1600200D03*
G01X-6680200Y-990600D03*
G01X6692900Y-1574800D03*
G01X6692900Y-990600D03*
G54D11*
G01X-762000Y-393700D03*
G01X-508000Y-393700D03*
G01X-254000Y-393700D03*
G01X0Y-393700D03*
G01X254000Y-393700D03*
G01X508000Y-393700D03*
G01X762000Y-393700D03*
G54D12*
G01X-6972628Y-412207D03*
G01X-6469777Y-241777D03*
G01X-6166704Y-571977D03*
G01X-5618877Y-63977D03*
G01X-5341204Y-241777D03*
G01X-5150704Y-216377D03*
G01X-5098177Y-317977D03*
G01X-4767977Y113823D03*
G01X-4617304Y-63977D03*
G01X-4464904Y-63977D03*
G01X-4187841Y-37485D03*
G01X-3929777Y291623D03*
G01X-3626704Y113823D03*
G01X-3552841Y140315D03*
G01X-3078877Y228123D03*
G01X-2775804Y202723D03*
G01X-2701941Y229215D03*
G01X-2279869Y318115D03*
G01X-2049699Y527890D03*
G01X-1924904Y139223D03*
G01X-1701800Y337800D03*
G01X-1638300Y127000D03*
G01X-1473190Y714326D03*
G01X-1450940Y317023D03*
G01X-1124804Y139223D03*
G01X-1123077Y304323D03*
G01X-946229Y-235029D03*
G01X-932577Y139223D03*
G01X-863600Y50800D03*
G01X-736591Y-237311D03*
G01X-687848Y470515D03*
G01X-604104Y113823D03*
G01X-507588Y545623D03*
G01X-473040Y673715D03*
G01X-451987Y360000D03*
G01X-403847Y-100379D03*
G01X74305Y157431D03*
G01X114513Y307926D03*
G01X175905Y665431D03*
G01X229219Y83415D03*
G01X229219Y303836D03*
G01X455305Y665431D03*
G01X457819Y575032D03*
G01X483219Y394235D03*
G01X517560Y-39669D03*
G01X534019Y43817D03*
G01X559419Y123014D03*
G01X716696Y139223D03*
G01X718423Y-198169D03*
G01X838209Y-262711D03*
G01X889619Y394315D03*
G01X1389796Y139223D03*
G01X1965360Y470515D03*
G01X2215296Y291623D03*
G01X2410517Y140315D03*
G01X2816260Y381615D03*
G01X3091596Y50323D03*
G01X3616360Y140315D03*
G01X3942496Y113823D03*
G01X4160119Y-164485D03*
G01X4518060Y114915D03*
G01X4642719Y-215285D03*
G01X4793396Y-216377D03*
G01X5368960Y-62885D03*
G01X5644296Y-241777D03*
G01X6219860Y-240685D03*
G01X6495196Y-571977D03*
G01X6664258Y-335884D03*
G04 Drill Drawing End*

M02*

